<svg width="49" height="45" viewBox="0 0 49 45" fill="none" xmlns="http://www.w3.org/2000/svg">
<path d="M24.3406 20.7433C28.6448 20.7433 31.9925 17.248 31.9925 12.9582C31.9925 8.66845 28.4854 5.33197 24.1812 5.33197C19.877 5.33197 16.5293 8.82733 16.5293 12.9582C16.5293 17.248 20.0364 20.7433 24.3406 20.7433ZM24.1812 8.50957C24.3406 8.50957 24.3406 8.50957 24.1812 8.50957C26.7319 8.50957 28.8042 10.575 28.8042 13.1171C28.8042 15.6592 26.7319 17.5657 24.1812 17.5657C21.6306 17.5657 19.7176 15.5003 19.7176 13.1171C19.7176 10.575 21.79 8.50957 24.1812 8.50957Z" fill="#0D5C63"/>
<path d="M47.934 19.7898C44.9051 17.0888 40.9197 15.6589 36.775 15.8178H35.4996C35.1808 17.0888 34.7026 18.201 34.0649 19.1542C35.0214 18.9954 35.8185 18.9954 36.775 18.9954C39.8038 18.8365 42.8327 19.7898 45.2239 21.5374V32.9768H48.4122V20.2664L47.934 19.7898Z" fill="#0D5C63"/>
<path d="M33.1084 5.64921C33.9055 3.74265 36.1373 2.78937 38.2097 3.58377C40.1227 4.37817 41.0792 6.60249 40.2821 8.66793C39.6444 10.0978 38.2097 11.0511 36.775 11.0511C36.4561 11.0511 35.9779 11.0511 35.6591 10.8922C35.8185 11.6866 35.8185 12.481 35.8185 13.1166V14.0698C36.1373 14.0698 36.4561 14.2287 36.775 14.2287C40.7603 14.2287 43.9486 11.0511 43.9486 7.23801C43.9486 3.26601 40.7603 0.0884148 36.9344 0.0884148C34.3837 0.0884148 32.1519 1.35945 30.8766 3.58377C31.6737 4.06041 32.4708 4.69593 33.1084 5.64921Z" fill="#0D5C63"/>
<path d="M14.9352 19.3132C14.2975 18.36 13.8193 17.2478 13.5005 15.9768H12.2252C8.08037 15.8179 4.09501 17.2478 1.06613 19.7899L0.587891 20.2665V32.9769H3.77618V21.5375C6.32681 19.7899 9.19628 18.8366 12.2252 18.9955C13.1816 18.9955 14.1381 19.1544 14.9352 19.3132Z" fill="#0D5C63"/>
<path d="M12.2252 14.0704C12.544 14.0704 12.8628 14.0704 13.1816 13.9116V12.9583C13.1816 12.1639 13.1816 11.3695 13.3411 10.734C13.0222 10.8928 12.544 10.8928 12.2252 10.8928C10.1528 10.8928 8.39921 9.14516 8.39921 7.07972C8.39921 5.01428 10.1528 3.2666 12.2252 3.2666C13.8193 3.2666 15.254 4.21988 15.8917 5.6498C16.5294 4.8554 17.4858 4.061 18.2829 3.42548C16.2105 0.0890031 11.9063 -1.02316 8.55863 1.04228C5.21092 3.10772 4.09502 7.39748 6.16741 10.734C7.44272 12.7994 9.67453 14.0704 12.2252 14.0704Z" fill="#0D5C63"/>
<path d="M37.4126 29.3226L37.0938 28.846C33.9055 25.3506 29.4419 23.2852 24.6595 23.4441C19.8771 23.2852 15.254 25.3506 12.0657 28.846L11.7469 29.3226V41.3975C11.7469 42.8274 12.8628 44.0985 14.457 44.0985H34.862C36.2967 44.0985 37.5721 42.8274 37.5721 41.3975V29.3226H37.4126ZM34.2244 40.9209H14.9352V30.4348C17.4858 27.8927 20.993 26.6217 24.6595 26.6217C28.1666 26.4628 31.6737 27.8927 34.2244 30.4348V40.9209Z" fill="#0D5C63"/>
</svg>
