<svg width="48" height="28" viewBox="0 0 48 28" fill="none" xmlns="http://www.w3.org/2000/svg">
<path d="M43.1506 12.2822C42.5751 12.2864 42.005 12.3962 41.4678 12.6064L35.7275 7.82167C35.8687 7.30005 35.9692 6.75894 35.9692 6.18858C35.9692 2.81028 33.3026 0.0949707 29.9848 0.0949707C26.667 0.0949707 24.0003 2.81028 24.0003 6.18858C24.0003 7.15381 24.2397 8.05323 24.6275 8.86246L17.664 17.2424C17.3852 17.1893 17.1025 17.1607 16.819 17.1571C16.3905 17.1571 15.9859 17.2302 15.5934 17.3374L9.4581 11.0903C9.56582 10.693 9.63763 10.281 9.63763 9.84475C9.63763 7.14406 7.50238 4.96986 4.85006 4.96986C2.19775 4.96986 0.0625 7.14406 0.0625 9.84475C0.0625 12.5454 2.19775 14.7196 4.85006 14.7196C5.27855 14.7196 5.6831 14.6465 6.07568 14.5393L12.2109 20.7864C12.0959 21.1914 12.0355 21.6104 12.0314 22.032C12.0314 24.7327 14.1667 26.9069 16.819 26.9069C19.4713 26.9069 21.6065 24.7327 21.6065 22.032C21.6065 21.4543 21.4916 20.9107 21.3121 20.3964L28.2852 12.0068C28.8286 12.1676 29.3911 12.2822 29.9848 12.2822C30.9295 12.2769 31.8593 12.0421 32.6969 11.5973L38.4396 16.382C38.3946 16.638 38.369 16.8971 38.363 17.1571C38.363 19.8578 40.4983 22.032 43.1506 22.032C45.8029 22.032 47.9381 19.8578 47.9381 17.1571C47.9381 14.4564 45.8029 12.2822 43.1506 12.2822Z" fill="#0D5C63"/>
</svg>
